<svg xmlns="http://www.w3.org/2000/svg" xmlns:svg="http://www.w3.org/2000/svg" xmlns:xlink="http://www.w3.org/1999/xlink" version="1.0" height="390.0131529127545pt" width="1288.0000000000011pt" viewBox="105.1 436.95 1296.0000000000011 396.0131529127545" ><defs><style type="text/css">
            @font-face {
                font-family: 'noto_regular';
                src: url('https://app.creately.com/diagram/assets/fonts/noto/noto-regular.woff') format('woff'),
                     url('https://app.creately.com/diagram/assets/fonts/noto/noto-regular.woff2') format('woff2');
                font-weight: normal;
                font-style: normal;
            }
        p {
            margin: 0;
        }
        </style></defs><defs><style>
            span{ display: inline-block; }
        </style></defs><g id="53li10r0w0"><g transform="translate(110.1 439.95)"><path d="M 0.5,0.5 L 380,0.4999999999999829 L 380,389.5 L 0.5000000000000175,389.5 Z" fill="rgb(255, 255, 255)" stroke="rgb(48, 113, 169)" stroke-width="1" stroke-linecap="round" stroke-linejoin="round"/><path d="M 0.5,0.5 L 1279.5,0.4999999999999425 L 1279.5,39.49999999999994 L 0.5000000000000018,39.5 Z" fill="rgb(66, 140, 203)" stroke="rgb(48, 113, 169)" stroke-width="1" stroke-linecap="round" stroke-linejoin="round"/><path d="M 380,39.499999999999986 L 1279.5,39.49999999999994 L 1279.5,389.49999999999994 L 380,389.5 Z" fill="rgb(255, 255, 255)" stroke="rgb(48, 113, 169)" stroke-width="1" stroke-linecap="round" stroke-linejoin="round"/><path d="M 0.5000000000000019,41.5 L 1279.5,41.49999999999994 L 1279.5,90.49999999999994 L 0.5000000000000041,90.5 Z" fill="rgb(241, 246, 251)" stroke="rgb(241, 246, 251)" stroke-width="1" stroke-linecap="round" stroke-linejoin="round"/><path d="M 0.5000000000000063,141.5 L 1279.5,141.49999999999994 L 1279.5,190.49999999999994 L 0.5000000000000085,190.5 Z" fill="rgb(241, 246, 251)" stroke="rgb(241, 246, 251)" stroke-width="1" stroke-linecap="round" stroke-linejoin="round"/><path d="M 0.5000000000000109,241.5 L 1279.5,241.49999999999994 L 1279.5,290.49999999999994 L 0.5000000000000131,290.5 Z" fill="rgb(241, 246, 251)" stroke="rgb(241, 246, 251)" stroke-width="1" stroke-linecap="round" stroke-linejoin="round"/><path d="M 0.5000000000000153,341.5 L 1279.5,341.49999999999994 L 1279.5,390.49999999999994 L 0.5000000000000175,390.5 Z" fill="rgb(241, 246, 251)" stroke="rgb(241, 246, 251)" stroke-width="1" stroke-linecap="round" stroke-linejoin="round"/><path d="M 0.5,0.5 L 0.5000000000000174,389 M 1279.5,0.4999999999999425 L 1279.5,388.99999999999994 M 25,0.4999999999999989 L 25.000000000000018,389 M 275,0.4999999999999876 L 275,389 M 380,0.4999999999999829 L 380,389" fill="none" stroke="rgb(48, 113, 169)" stroke-width="1" stroke-linecap="round" stroke-linejoin="round"/><path d="M 380,389 L 430,19.999999999999982" fill="none" stroke="rgb(48, 113, 169)" stroke-width="1" stroke-linecap="round" stroke-linejoin="round"/><path d="M 430,19.999999999999982 L 430,39.49999999999998" fill="none" stroke="rgb(48, 113, 169)" stroke-width="0.5" stroke-linecap="round" stroke-linejoin="round"/><path d="M 430,39.49999999999998 L 430,389" fill="none" stroke="rgb(192, 212, 229)" stroke-width="0.5" stroke-linecap="round" stroke-linejoin="round"/><path d="M 430,389 L 480,19.99999999999998" fill="none" stroke="rgb(48, 113, 169)" stroke-width="1" stroke-linecap="round" stroke-linejoin="round"/><path d="M 480,19.99999999999998 L 480,39.49999999999998" fill="none" stroke="rgb(48, 113, 169)" stroke-width="0.5" stroke-linecap="round" stroke-linejoin="round"/><path d="M 480,39.49999999999998 L 480,389" fill="none" stroke="rgb(192, 212, 229)" stroke-width="0.5" stroke-linecap="round" stroke-linejoin="round"/><path d="M 480,389 L 530,19.999999999999975" fill="none" stroke="rgb(48, 113, 169)" stroke-width="1" stroke-linecap="round" stroke-linejoin="round"/><path d="M 530,19.999999999999975 L 530,39.49999999999998" fill="none" stroke="rgb(48, 113, 169)" stroke-width="0.5" stroke-linecap="round" stroke-linejoin="round"/><path d="M 530,39.49999999999998 L 530,389" fill="none" stroke="rgb(192, 212, 229)" stroke-width="0.5" stroke-linecap="round" stroke-linejoin="round"/><path d="M 580,0.4999999999999739 L 580,39.99999999999997" fill="none" stroke="rgb(48, 113, 169)" stroke-width="1" stroke-linecap="round" stroke-linejoin="round"/><path d="M 580,39.99999999999997 L 580,388.5" fill="none" stroke="rgb(192, 212, 229)" stroke-width="1.5" stroke-linecap="round" stroke-linejoin="round"/><path d="M 580,388.5 L 630,19.99999999999997" fill="none" stroke="rgb(48, 113, 169)" stroke-width="1" stroke-linecap="round" stroke-linejoin="round"/><path d="M 630,19.99999999999997 L 630,39.49999999999997" fill="none" stroke="rgb(48, 113, 169)" stroke-width="0.5" stroke-linecap="round" stroke-linejoin="round"/><path d="M 630,39.49999999999997 L 630,389" fill="none" stroke="rgb(192, 212, 229)" stroke-width="0.5" stroke-linecap="round" stroke-linejoin="round"/><path d="M 630,389 L 680,19.999999999999968" fill="none" stroke="rgb(48, 113, 169)" stroke-width="1" stroke-linecap="round" stroke-linejoin="round"/><path d="M 680,19.999999999999968 L 680,39.49999999999997" fill="none" stroke="rgb(48, 113, 169)" stroke-width="0.5" stroke-linecap="round" stroke-linejoin="round"/><path d="M 680,39.49999999999997 L 680,388.99999999999994" fill="none" stroke="rgb(192, 212, 229)" stroke-width="0.5" stroke-linecap="round" stroke-linejoin="round"/><path d="M 680,388.99999999999994 L 730,19.999999999999968" fill="none" stroke="rgb(48, 113, 169)" stroke-width="1" stroke-linecap="round" stroke-linejoin="round"/><path d="M 730,19.999999999999968 L 730,39.499999999999964" fill="none" stroke="rgb(48, 113, 169)" stroke-width="0.5" stroke-linecap="round" stroke-linejoin="round"/><path d="M 730,39.499999999999964 L 730,388.99999999999994" fill="none" stroke="rgb(192, 212, 229)" stroke-width="0.5" stroke-linecap="round" stroke-linejoin="round"/><path d="M 730,388.99999999999994 L 780,19.999999999999964" fill="none" stroke="rgb(48, 113, 169)" stroke-width="1" stroke-linecap="round" stroke-linejoin="round"/><path d="M 780,19.999999999999964 L 780,39.499999999999964" fill="none" stroke="rgb(48, 113, 169)" stroke-width="0.5" stroke-linecap="round" stroke-linejoin="round"/><path d="M 780,39.499999999999964 L 780,388.99999999999994" fill="none" stroke="rgb(192, 212, 229)" stroke-width="0.5" stroke-linecap="round" stroke-linejoin="round"/><path d="M 780,388.99999999999994 L 830,19.999999999999964" fill="none" stroke="rgb(48, 113, 169)" stroke-width="1" stroke-linecap="round" stroke-linejoin="round"/><path d="M 830,19.999999999999964 L 830,39.499999999999964" fill="none" stroke="rgb(48, 113, 169)" stroke-width="0.5" stroke-linecap="round" stroke-linejoin="round"/><path d="M 830,39.499999999999964 L 830,388.99999999999994" fill="none" stroke="rgb(192, 212, 229)" stroke-width="0.5" stroke-linecap="round" stroke-linejoin="round"/><path d="M 830,388.99999999999994 L 880,19.99999999999996" fill="none" stroke="rgb(48, 113, 169)" stroke-width="1" stroke-linecap="round" stroke-linejoin="round"/><path d="M 880,19.99999999999996 L 880,39.49999999999996" fill="none" stroke="rgb(48, 113, 169)" stroke-width="0.5" stroke-linecap="round" stroke-linejoin="round"/><path d="M 880,39.49999999999996 L 880,388.99999999999994" fill="none" stroke="rgb(192, 212, 229)" stroke-width="0.5" stroke-linecap="round" stroke-linejoin="round"/><path d="M 880,388.99999999999994 L 930,19.999999999999957" fill="none" stroke="rgb(48, 113, 169)" stroke-width="1" stroke-linecap="round" stroke-linejoin="round"/><path d="M 930,19.999999999999957 L 930,39.49999999999996" fill="none" stroke="rgb(48, 113, 169)" stroke-width="0.5" stroke-linecap="round" stroke-linejoin="round"/><path d="M 930,39.49999999999996 L 930,388.99999999999994" fill="none" stroke="rgb(192, 212, 229)" stroke-width="0.5" stroke-linecap="round" stroke-linejoin="round"/><path d="M 930,388.99999999999994 L 980,19.999999999999957" fill="none" stroke="rgb(48, 113, 169)" stroke-width="1" stroke-linecap="round" stroke-linejoin="round"/><path d="M 980,19.999999999999957 L 980,39.49999999999996" fill="none" stroke="rgb(48, 113, 169)" stroke-width="0.5" stroke-linecap="round" stroke-linejoin="round"/><path d="M 980,39.49999999999996 L 980,388.99999999999994" fill="none" stroke="rgb(192, 212, 229)" stroke-width="0.5" stroke-linecap="round" stroke-linejoin="round"/><path d="M 980,388.99999999999994 L 1030,19.999999999999954" fill="none" stroke="rgb(48, 113, 169)" stroke-width="1" stroke-linecap="round" stroke-linejoin="round"/><path d="M 1030,19.999999999999954 L 1030,39.49999999999995" fill="none" stroke="rgb(48, 113, 169)" stroke-width="0.5" stroke-linecap="round" stroke-linejoin="round"/><path d="M 1030,39.49999999999995 L 1030,388.99999999999994" fill="none" stroke="rgb(192, 212, 229)" stroke-width="0.5" stroke-linecap="round" stroke-linejoin="round"/><path d="M 1030,388.99999999999994 L 1080,19.99999999999995" fill="none" stroke="rgb(48, 113, 169)" stroke-width="1" stroke-linecap="round" stroke-linejoin="round"/><path d="M 1080,19.99999999999995 L 1080,39.49999999999995" fill="none" stroke="rgb(48, 113, 169)" stroke-width="0.5" stroke-linecap="round" stroke-linejoin="round"/><path d="M 1080,39.49999999999995 L 1080,388.99999999999994" fill="none" stroke="rgb(192, 212, 229)" stroke-width="0.5" stroke-linecap="round" stroke-linejoin="round"/><path d="M 1080,388.99999999999994 L 1130,19.99999999999995" fill="none" stroke="rgb(48, 113, 169)" stroke-width="1" stroke-linecap="round" stroke-linejoin="round"/><path d="M 1130,19.99999999999995 L 1130,39.49999999999995" fill="none" stroke="rgb(48, 113, 169)" stroke-width="0.5" stroke-linecap="round" stroke-linejoin="round"/><path d="M 1130,39.49999999999995 L 1130,388.99999999999994" fill="none" stroke="rgb(192, 212, 229)" stroke-width="0.5" stroke-linecap="round" stroke-linejoin="round"/><path d="M 1180,0.499999999999947 L 1180,39.99999999999995" fill="none" stroke="rgb(48, 113, 169)" stroke-width="1" stroke-linecap="round" stroke-linejoin="round"/><path d="M 1180,39.99999999999995 L 1180,388.49999999999994" fill="none" stroke="rgb(192, 212, 229)" stroke-width="1.5" stroke-linecap="round" stroke-linejoin="round"/><path d="M 1180,388.49999999999994 L 1230,19.999999999999943" fill="none" stroke="rgb(48, 113, 169)" stroke-width="1" stroke-linecap="round" stroke-linejoin="round"/><path d="M 1230,19.999999999999943 L 1230,39.49999999999994" fill="none" stroke="rgb(48, 113, 169)" stroke-width="0.5" stroke-linecap="round" stroke-linejoin="round"/><path d="M 1230,39.49999999999994 L 1230,388.99999999999994" fill="none" stroke="rgb(192, 212, 229)" stroke-width="0.5" stroke-linecap="round" stroke-linejoin="round"/><path d="M 1279.5,0.4999999999999425 L 1279.5,39.99999999999994 L 1279.5,388.99999999999994 M 380,19.999999999999982 L 1279,19.999999999999943 M 0.5000000000000018,40 L 1279,39.99999999999994 M 0.5000000000000175,389.5 L 1279,388.99999999999994" fill="none" stroke="rgb(48, 113, 169)" stroke-width="1" stroke-linecap="round" stroke-linejoin="round"/></g><g transform="translate(115.1, 451.45038784229916) rotate(0, 0, 0)" width="17" height="19"><text text-decoration="none" x="0" fill="#ffffff" font-size="9pt" font-family="Lato"  y="17">ID&#160;</text><text text-decoration="none" x="15" fill="#4b4b4b" font-size="10pt" font-family="noto_regular"  y="17"></text></g><g transform="translate(140.1, 451.45038784229916) rotate(0, 0, 0)" width="68" height="19"><text text-decoration="none" x="0" fill="#ffffff" font-size="9pt" font-family="Lato"  y="17">Task&#160;</text><text text-decoration="none" x="29" fill="#ffffff" font-size="9pt" font-family="Lato"  y="17">Name&#160;</text><text text-decoration="none" x="66" fill="#4b4b4b" font-size="10pt" font-family="noto_regular"  y="17"></text></g><g transform="translate(390.1, 451.45038784229916) rotate(0, 0, 0)" width="116" height="19"><text text-decoration="none" x="0" fill="#000000" font-size="9pt" font-family="Lato"  y="17">Duration&#160;</text><text text-decoration="none" x="52" fill="#000000" font-size="9pt" font-family="Lato"  y="17">(months)&#160;</text><text text-decoration="none" x="105" fill="#4b4b4b" font-size="10pt" font-family="noto_regular"  y="17"></text></g><g transform="translate(115.1, 495.9518886233699) rotate(0, 0, 0)" width="15" height="19"><text text-decoration="none" x="0" fill="#4b4b4b" font-size="11pt" font-family="Lato"  y="17">1&#160;</text><text text-decoration="none" x="13" fill="#4b4b4b" font-size="10pt" font-family="noto_regular"  y="17"></text></g><g transform="translate(140.1, 495.9518886233699) rotate(0, 0, 0)" width="329" height="19"><text text-decoration="none" x="0" fill="#4b4b4b" font-size="11pt" font-family="Lato"  y="17">Identifying&#160;</text><text text-decoration="none" x="77" fill="#4b4b4b" font-size="11pt" font-family="Lato"  y="17">the&#160;</text><text text-decoration="none" x="103" fill="#4b4b4b" font-size="11pt" font-family="Lato"  y="17">problems&#160;</text><text text-decoration="none" x="173" fill="#4b4b4b" font-size="11pt" font-family="Lato"  y="17">and&#160;</text><text text-decoration="none" x="203" fill="#4b4b4b" font-size="11pt" font-family="Lato"  y="17">the&#160;</text><text text-decoration="none" x="229" fill="#4b4b4b" font-size="11pt" font-family="Lato"  y="17">solutions&#160;</text><text text-decoration="none" x="296" fill="#4b4b4b" font-size="10pt" font-family="noto_regular"  y="17"></text></g><g transform="translate(390.1, 495.9518886233698) rotate(0, 0, 0)" width="15" height="19"><text text-decoration="none" x="0" fill="#4b4b4b" font-size="11pt" font-family="Lato"  y="17">1&#160;</text><text text-decoration="none" x="13" fill="#4b4b4b" font-size="10pt" font-family="noto_regular"  y="17"></text></g><g transform="translate(115.10000000000001, 545.9535748942358) rotate(0, 0, 0)" width="15" height="19"><text text-decoration="none" x="0" fill="#4b4b4b" font-size="11pt" font-family="Lato"  y="17">2&#160;</text><text text-decoration="none" x="13" fill="#4b4b4b" font-size="10pt" font-family="noto_regular"  y="17"></text></g><g transform="translate(140.1, 545.9535748942358) rotate(0, 0, 0)" width="207" height="19"><text text-decoration="none" x="0" fill="#4b4b4b" font-size="11pt" font-family="Lato"  y="17">Survey&#160;</text><text text-decoration="none" x="51" fill="#4b4b4b" font-size="11pt" font-family="Lato"  y="17">of&#160;</text><text text-decoration="none" x="69" fill="#4b4b4b" font-size="11pt" font-family="Lato"  y="17">previous&#160;</text><text text-decoration="none" x="133" fill="#4b4b4b" font-size="11pt" font-family="Lato"  y="17">studies&#160;</text><text text-decoration="none" x="186" fill="#4b4b4b" font-size="10pt" font-family="noto_regular"  y="17"></text></g><g transform="translate(390.1, 545.9535748942358) rotate(0, 0, 0)" width="15" height="19"><text text-decoration="none" x="0" fill="#4b4b4b" font-size="11pt" font-family="Lato"  y="17">2&#160;</text><text text-decoration="none" x="13" fill="#4b4b4b" font-size="10pt" font-family="noto_regular"  y="17"></text></g><g transform="translate(115.10000000000001, 595.9552611651018) rotate(0, 0, 0)" width="15" height="19"><text text-decoration="none" x="0" fill="#4b4b4b" font-size="11pt" font-family="Lato"  y="17">3&#160;</text><text text-decoration="none" x="13" fill="#4b4b4b" font-size="10pt" font-family="noto_regular"  y="17"></text></g><g transform="translate(140.1, 595.9552611651018) rotate(0, 0, 0)" width="74" height="19"><text text-decoration="none" x="0" fill="#4b4b4b" font-size="11pt" font-family="Lato"  y="17">Modeling&#160;</text><text text-decoration="none" x="69" fill="#4b4b4b" font-size="10pt" font-family="noto_regular"  y="17"></text></g><g transform="translate(390.1, 595.9552611651018) rotate(0, 0, 0)" width="15" height="19"><text text-decoration="none" x="0" fill="#4b4b4b" font-size="11pt" font-family="Lato"  y="17">3&#160;</text><text text-decoration="none" x="13" fill="#4b4b4b" font-size="10pt" font-family="noto_regular"  y="17"></text></g><g transform="translate(115.10000000000002, 645.9569474359678) rotate(0, 0, 0)" width="15" height="19"><text text-decoration="none" x="0" fill="#4b4b4b" font-size="11pt" font-family="Lato"  y="17">4&#160;</text><text text-decoration="none" x="13" fill="#4b4b4b" font-size="10pt" font-family="noto_regular"  y="17"></text></g><g transform="translate(140.10000000000002, 645.9569474359678) rotate(0, 0, 0)" width="138" height="19"><text text-decoration="none" x="0" fill="#4b4b4b" font-size="11pt" font-family="Lato"  y="17">Model&#160;</text><text text-decoration="none" x="48" fill="#4b4b4b" font-size="11pt" font-family="Lato"  y="17">verification&#160;</text><text text-decoration="none" x="129" fill="#4b4b4b" font-size="10pt" font-family="noto_regular"  y="17"></text></g><g transform="translate(390.1, 645.9569474359678) rotate(0, 0, 0)" width="15" height="19"><text text-decoration="none" x="0" fill="#4b4b4b" font-size="11pt" font-family="Lato"  y="17">3&#160;</text><text text-decoration="none" x="13" fill="#4b4b4b" font-size="10pt" font-family="noto_regular"  y="17"></text></g><g transform="translate(115.10000000000002, 695.9586337068338) rotate(0, 0, 0)" width="15" height="19"><text text-decoration="none" x="0" fill="#4b4b4b" font-size="11pt" font-family="Lato"  y="17">5&#160;</text><text text-decoration="none" x="13" fill="#4b4b4b" font-size="10pt" font-family="noto_regular"  y="17"></text></g><g transform="translate(140.10000000000002, 695.9586337068338) rotate(0, 0, 0)" width="230" height="19"><text text-decoration="none" x="0" fill="#4b4b4b" font-size="11pt" font-family="Lato"  y="17">Design&#160;</text><text text-decoration="none" x="51" fill="#4b4b4b" font-size="11pt" font-family="Lato"  y="17">of&#160;</text><text text-decoration="none" x="69" fill="#4b4b4b" font-size="11pt" font-family="Lato"  y="17">different&#160;</text><text text-decoration="none" x="132" fill="#4b4b4b" font-size="11pt" font-family="Lato"  y="17">controllers&#160;</text><text text-decoration="none" x="210" fill="#4b4b4b" font-size="10pt" font-family="noto_regular"  y="17"></text></g><g transform="translate(390.1, 695.9586337068338) rotate(0, 0, 0)" width="15" height="19"><text text-decoration="none" x="0" fill="#4b4b4b" font-size="11pt" font-family="Lato"  y="17">4&#160;</text><text text-decoration="none" x="13" fill="#4b4b4b" font-size="10pt" font-family="noto_regular"  y="17"></text></g><g transform="translate(115.10000000000004, 745.9603199776997) rotate(0, 0, 0)" width="15" height="19"><text text-decoration="none" x="0" fill="#4b4b4b" font-size="11pt" font-family="Lato"  y="17">6&#160;</text><text text-decoration="none" x="13" fill="#4b4b4b" font-size="10pt" font-family="noto_regular"  y="17"></text></g><g transform="translate(140.10000000000005, 745.9603199776997) rotate(0, 0, 0)" width="165" height="19"><text text-decoration="none" x="0" fill="#4b4b4b" font-size="11pt" font-family="Lato"  y="17">Analyzing&#160;</text><text text-decoration="none" x="71" fill="#4b4b4b" font-size="11pt" font-family="Lato"  y="17">the&#160;</text><text text-decoration="none" x="97" fill="#4b4b4b" font-size="11pt" font-family="Lato"  y="17">results&#160;</text><text text-decoration="none" x="147" fill="#4b4b4b" font-size="10pt" font-family="noto_regular"  y="17"></text></g><g transform="translate(390.1, 745.9603199776997) rotate(0, 0, 0)" width="15" height="19"><text text-decoration="none" x="0" fill="#4b4b4b" font-size="11pt" font-family="Lato"  y="17">2&#160;</text><text text-decoration="none" x="13" fill="#4b4b4b" font-size="10pt" font-family="noto_regular"  y="17"></text></g><g transform="translate(115.10000000000004, 795.9620062485656) rotate(0, 0, 0)" width="15" height="19"><text text-decoration="none" x="0" fill="#4b4b4b" font-size="11pt" font-family="Lato"  y="17">7&#160;</text><text text-decoration="none" x="13" fill="#4b4b4b" font-size="10pt" font-family="noto_regular"  y="17"></text></g><g transform="translate(140.10000000000005, 795.9620062485656) rotate(0, 0, 0)" width="126" height="19"><text text-decoration="none" x="0" fill="#4b4b4b" font-size="11pt" font-family="Lato"  y="17">writing&#160;</text><text text-decoration="none" x="52" fill="#4b4b4b" font-size="11pt" font-family="Lato"  y="17">of&#160;</text><text text-decoration="none" x="70" fill="#4b4b4b" font-size="11pt" font-family="Lato"  y="17">thesis&#160;</text><text text-decoration="none" x="114" fill="#4b4b4b" font-size="10pt" font-family="noto_regular"  y="17"></text></g><g transform="translate(390.1, 795.9620062485656) rotate(0, 0, 0)" width="15" height="19"><text text-decoration="none" x="0" fill="#4b4b4b" font-size="11pt" font-family="Lato"  y="17">3&#160;</text><text text-decoration="none" x="13" fill="#4b4b4b" font-size="10pt" font-family="noto_regular"  y="17"></text></g><g transform="translate(490.6, 440.45001686270865) rotate(0, 0, 0)" width="36" height="19"><text text-decoration="none" x="0" fill="#ffffff" font-size="9pt" font-family="Lato"  y="17">2015&#160;</text><text text-decoration="none" x="31" fill="#4b4b4b" font-size="10pt" font-family="noto_regular"  y="17"></text></g><g transform="translate(503.1, 460.45069137105503) rotate(0, 0, 0)" width="27" height="19"><text text-decoration="none" x="0" fill="#ffffff" font-size="9pt" font-family="Lato"  y="17">Sep&#160;</text><text text-decoration="none" x="24" fill="#4b4b4b" font-size="10pt" font-family="noto_regular"  y="17"></text></g><g transform="translate(553.1, 460.45069137105503) rotate(0, 0, 0)" width="25" height="19"><text text-decoration="none" x="0" fill="#ffffff" font-size="9pt" font-family="Lato"  y="17">Oct&#160;</text><text text-decoration="none" x="22" fill="#4b4b4b" font-size="10pt" font-family="noto_regular"  y="17"></text></g><g transform="translate(601.6, 460.45069137105503) rotate(0, 0, 0)" width="27" height="19"><text text-decoration="none" x="0" fill="#ffffff" font-size="9pt" font-family="Lato"  y="17">Nov&#160;</text><text text-decoration="none" x="25" fill="#4b4b4b" font-size="10pt" font-family="noto_regular"  y="17"></text></g><g transform="translate(652.6, 460.45069137105503) rotate(0, 0, 0)" width="27" height="19"><text text-decoration="none" x="0" fill="#ffffff" font-size="9pt" font-family="Lato"  y="17">Dec&#160;</text><text text-decoration="none" x="25" fill="#4b4b4b" font-size="10pt" font-family="noto_regular"  y="17"></text></g><g transform="translate(690.6, 440.4500168627086) rotate(0, 0, 0)" width="36" height="19"><text text-decoration="none" x="0" fill="#ffffff" font-size="9pt" font-family="Lato"  y="17">2016&#160;</text><text text-decoration="none" x="31" fill="#4b4b4b" font-size="10pt" font-family="noto_regular"  y="17"></text></g><g transform="translate(704.1, 460.45069137105503) rotate(0, 0, 0)" width="23" height="19"><text text-decoration="none" x="0" fill="#ffffff" font-size="9pt" font-family="Lato"  y="17">Jan&#160;</text><text text-decoration="none" x="20" fill="#4b4b4b" font-size="10pt" font-family="noto_regular"  y="17"></text></g><g transform="translate(753.1, 460.45069137105503) rotate(0, 0, 0)" width="25" height="19"><text text-decoration="none" x="0" fill="#ffffff" font-size="9pt" font-family="Lato"  y="17">Feb&#160;</text><text text-decoration="none" x="23" fill="#4b4b4b" font-size="10pt" font-family="noto_regular"  y="17"></text></g><g transform="translate(801.6, 460.450691371055) rotate(0, 0, 0)" width="26" height="19"><text text-decoration="none" x="0" fill="#ffffff" font-size="9pt" font-family="Lato"  y="17">Mar&#160;</text><text text-decoration="none" x="26" fill="#4b4b4b" font-size="10pt" font-family="noto_regular"  y="17"></text></g><g transform="translate(852.1, 460.450691371055) rotate(0, 0, 0)" width="25" height="19"><text text-decoration="none" x="0" fill="#ffffff" font-size="9pt" font-family="Lato"  y="17">Apr&#160;</text><text text-decoration="none" x="23" fill="#4b4b4b" font-size="10pt" font-family="noto_regular"  y="17"></text></g><g transform="translate(900.1, 460.450691371055) rotate(0, 0, 0)" width="28" height="19"><text text-decoration="none" x="0" fill="#ffffff" font-size="9pt" font-family="Lato"  y="17">May&#160;</text><text text-decoration="none" x="27" fill="#4b4b4b" font-size="10pt" font-family="noto_regular"  y="17"></text></g><g transform="translate(953.6, 460.450691371055) rotate(0, 0, 0)" width="24" height="19"><text text-decoration="none" x="0" fill="#ffffff" font-size="9pt" font-family="Lato"  y="17">Jun&#160;</text><text text-decoration="none" x="20" fill="#4b4b4b" font-size="10pt" font-family="noto_regular"  y="17"></text></g><g transform="translate(1005.1, 460.450691371055) rotate(0, 0, 0)" width="19" height="19"><text text-decoration="none" x="0" fill="#ffffff" font-size="9pt" font-family="Lato"  y="17">Jul&#160;</text><text text-decoration="none" x="16" fill="#4b4b4b" font-size="10pt" font-family="noto_regular"  y="17"></text></g><g transform="translate(1052.1, 460.450691371055) rotate(0, 0, 0)" width="28" height="19"><text text-decoration="none" x="0" fill="#ffffff" font-size="9pt" font-family="Lato"  y="17">Aug&#160;</text><text text-decoration="none" x="25" fill="#4b4b4b" font-size="10pt" font-family="noto_regular"  y="17"></text></g><g transform="translate(1103.1, 460.450691371055) rotate(0, 0, 0)" width="27" height="19"><text text-decoration="none" x="0" fill="#ffffff" font-size="9pt" font-family="Lato"  y="17">Sep&#160;</text><text text-decoration="none" x="24" fill="#4b4b4b" font-size="10pt" font-family="noto_regular"  y="17"></text></g><g transform="translate(1153.1, 460.450691371055) rotate(0, 0, 0)" width="25" height="19"><text text-decoration="none" x="0" fill="#ffffff" font-size="9pt" font-family="Lato"  y="17">Oct&#160;</text><text text-decoration="none" x="22" fill="#4b4b4b" font-size="10pt" font-family="noto_regular"  y="17"></text></g><g transform="translate(1201.6, 460.450691371055) rotate(0, 0, 0)" width="27" height="19"><text text-decoration="none" x="0" fill="#ffffff" font-size="9pt" font-family="Lato"  y="17">Nov&#160;</text><text text-decoration="none" x="25" fill="#4b4b4b" font-size="10pt" font-family="noto_regular"  y="17"></text></g><g transform="translate(1252.6, 460.450691371055) rotate(0, 0, 0)" width="27" height="19"><text text-decoration="none" x="0" fill="#ffffff" font-size="9pt" font-family="Lato"  y="17">Dec&#160;</text><text text-decoration="none" x="25" fill="#4b4b4b" font-size="10pt" font-family="noto_regular"  y="17"></text></g><g transform="translate(1290.6, 440.4500168627086) rotate(0, 0, 0)" width="36" height="19"><text text-decoration="none" x="0" fill="#ffffff" font-size="9pt" font-family="Lato"  y="17">2017&#160;</text><text text-decoration="none" x="31" fill="#4b4b4b" font-size="10pt" font-family="noto_regular"  y="17"></text></g><g transform="translate(1304.1, 460.450691371055) rotate(0, 0, 0)" width="23" height="19"><text text-decoration="none" x="0" fill="#ffffff" font-size="9pt" font-family="Lato"  y="17">Jan&#160;</text><text text-decoration="none" x="20" fill="#4b4b4b" font-size="10pt" font-family="noto_regular"  y="17"></text></g><g transform="translate(1353.1, 460.450691371055) rotate(0, 0, 0)" width="25" height="19"><text text-decoration="none" x="0" fill="#ffffff" font-size="9pt" font-family="Lato"  y="17">Feb&#160;</text><text text-decoration="none" x="23" fill="#4b4b4b" font-size="10pt" font-family="noto_regular"  y="17"></text></g></g><g id="3gjbx7d38s"><g transform="translate(490.0999999999999 479.95000000000005)"><path d="M 0.5,16.5 L 50,16.5 L 50,34.49969482421875 L 0.5,34.49969482421875 Z" fill="rgb(163, 119, 196)" stroke="rgb(163, 119, 196)" stroke-width="1" stroke-linecap="round" stroke-linejoin="round"/></g><g transform="translate(490.0999999999999, 479.95000000000005) rotate(0, 0, 0)" width="49" height="19"><text text-decoration="none" x="0" fill="#4b4b4b" font-size="8pt" font-family="Lato"  y="17">1&#160;</text><text text-decoration="none" x="9" fill="#4b4b4b" font-size="8pt" font-family="Lato"  y="17">Month&#160;</text><text text-decoration="none" x="47" fill="#4b4b4b" font-size="10pt" font-family="noto_regular"  y="17"></text></g><g transform="translate(509.0999999999999, 497.39984784807484) rotate(0, 0, 0)" width="39" height="19"><text text-decoration="none" x="0" fill="#f4f4f4" font-size="8pt" font-family="Lato"  y="17">100&#160;</text><text text-decoration="none" x="21" fill="#f4f4f4" font-size="8pt" font-family="Lato"  y="17">%&#160;</text><text text-decoration="none" x="33" fill="#4b4b4b" font-size="10pt" font-family="noto_regular"  y="17"></text></g></g><g id="eqbpkz57xs"><g transform="translate(540.0999999999999 529.95)"><path d="M 0.5,16.5 L 100,16.5 L 100,39.4990234375 L 0.5,39.4990234375 Z" fill="rgb(163, 119, 196)" stroke="rgb(163, 119, 196)" stroke-width="1" stroke-linecap="round" stroke-linejoin="round"/></g><g transform="translate(540.0999999999999, 529.95) rotate(0, 0, 0)" width="55" height="19"><text text-decoration="none" x="0" fill="#4b4b4b" font-size="8pt" font-family="Lato"  y="17">2&#160;</text><text text-decoration="none" x="9" fill="#4b4b4b" font-size="8pt" font-family="Lato"  y="17">Months&#160;</text><text text-decoration="none" x="52" fill="#4b4b4b" font-size="10pt" font-family="noto_regular"  y="17"></text></g><g transform="translate(609.0999999999999, 549.8995129394532) rotate(0, 0, 0)" width="39" height="19"><text text-decoration="none" x="0" fill="#f4f4f4" font-size="8pt" font-family="Lato"  y="17">100&#160;</text><text text-decoration="none" x="21" fill="#f4f4f4" font-size="8pt" font-family="Lato"  y="17">%&#160;</text><text text-decoration="none" x="33" fill="#4b4b4b" font-size="10pt" font-family="noto_regular"  y="17"></text></g></g><g id="205jmbqs9n"><g transform="translate(640.0999999999999 579.95)"><path d="M 0.5,16.5 L 150,16.5 L 150,39.49957275390625 L 0.5,39.49957275390625 Z" fill="rgb(163, 119, 196)" stroke="rgb(163, 119, 196)" stroke-width="1" stroke-linecap="round" stroke-linejoin="round"/></g><g transform="translate(640.0999999999999, 579.95) rotate(0, 0, 0)" width="55" height="19"><text text-decoration="none" x="0" fill="#4b4b4b" font-size="8pt" font-family="Lato"  y="17">3&#160;</text><text text-decoration="none" x="9" fill="#4b4b4b" font-size="8pt" font-family="Lato"  y="17">Months&#160;</text><text text-decoration="none" x="52" fill="#4b4b4b" font-size="10pt" font-family="noto_regular"  y="17"></text></g><g transform="translate(759.0999999999999, 599.8997869110108) rotate(0, 0, 0)" width="39" height="19"><text text-decoration="none" x="0" fill="#f4f4f4" font-size="8pt" font-family="Lato"  y="17">100&#160;</text><text text-decoration="none" x="21" fill="#f4f4f4" font-size="8pt" font-family="Lato"  y="17">%&#160;</text><text text-decoration="none" x="33" fill="#4b4b4b" font-size="10pt" font-family="noto_regular"  y="17"></text></g></g><g id="e3fh2htl5d"><g transform="translate(790.0999999999999 629.95)"><path d="M 0.5,16.5 L 150,16.5 L 150,39.499572753906236 L 0.5,39.499572753906236 Z" fill="rgb(163, 119, 196)" stroke="rgb(163, 119, 196)" stroke-width="1" stroke-linecap="round" stroke-linejoin="round"/></g><g transform="translate(790.0999999999999, 629.95) rotate(0, 0, 0)" width="55" height="19"><text text-decoration="none" x="0" fill="#4b4b4b" font-size="8pt" font-family="Lato"  y="17">3&#160;</text><text text-decoration="none" x="9" fill="#4b4b4b" font-size="8pt" font-family="Lato"  y="17">Months&#160;</text><text text-decoration="none" x="52" fill="#4b4b4b" font-size="10pt" font-family="noto_regular"  y="17"></text></g><g transform="translate(909.0999999999999, 649.8995129394532) rotate(0, 0, 0)" width="39" height="19"><text text-decoration="none" x="0" fill="#f4f4f4" font-size="8pt" font-family="Lato"  y="17">100&#160;</text><text text-decoration="none" x="21" fill="#f4f4f4" font-size="8pt" font-family="Lato"  y="17">%&#160;</text><text text-decoration="none" x="33" fill="#4b4b4b" font-size="10pt" font-family="noto_regular"  y="17"></text></g></g><g id="56emah0tdw"><g transform="translate(940.0999999999999 679.95)"><path d="M 0.5,16.5 L 200,16.5 L 200,39.49957275390625 L 0.5,39.49957275390625 Z" fill="rgb(163, 119, 196)" stroke="rgb(163, 119, 196)" stroke-width="1" stroke-linecap="round" stroke-linejoin="round"/></g><g transform="translate(940.0999999999999, 679.95) rotate(0, 0, 0)" width="55" height="19"><text text-decoration="none" x="0" fill="#4b4b4b" font-size="8pt" font-family="Lato"  y="17">4&#160;</text><text text-decoration="none" x="9" fill="#4b4b4b" font-size="8pt" font-family="Lato"  y="17">Months&#160;</text><text text-decoration="none" x="52" fill="#4b4b4b" font-size="10pt" font-family="noto_regular"  y="17"></text></g><g transform="translate(1109.1, 699.8997869110108) rotate(0, 0, 0)" width="39" height="19"><text text-decoration="none" x="0" fill="#f4f4f4" font-size="8pt" font-family="Lato"  y="17">100&#160;</text><text text-decoration="none" x="21" fill="#f4f4f4" font-size="8pt" font-family="Lato"  y="17">%&#160;</text><text text-decoration="none" x="33" fill="#4b4b4b" font-size="10pt" font-family="noto_regular"  y="17"></text></g></g><g id="3yvz953jkx"><g transform="translate(1140.100000000001 729.95)"><path d="M 0.5,16.5 L 100,16.5 L 100,39.49957275390625 L 0.5,39.49957275390625 Z" fill="rgb(163, 119, 196)" stroke="rgb(163, 119, 196)" stroke-width="1" stroke-linecap="round" stroke-linejoin="round"/></g><g transform="translate(1140.100000000001, 729.95) rotate(0, 0, 0)" width="55" height="19"><text text-decoration="none" x="0" fill="#4b4b4b" font-size="8pt" font-family="Lato"  y="17">2&#160;</text><text text-decoration="none" x="9" fill="#4b4b4b" font-size="8pt" font-family="Lato"  y="17">Months&#160;</text><text text-decoration="none" x="52" fill="#4b4b4b" font-size="10pt" font-family="noto_regular"  y="17"></text></g><g transform="translate(1209.100000000001, 749.8997869110108) rotate(0, 0, 0)" width="39" height="19"><text text-decoration="none" x="0" fill="#f4f4f4" font-size="8pt" font-family="Lato"  y="17">100&#160;</text><text text-decoration="none" x="21" fill="#f4f4f4" font-size="8pt" font-family="Lato"  y="17">%&#160;</text><text text-decoration="none" x="33" fill="#4b4b4b" font-size="10pt" font-family="noto_regular"  y="17"></text></g></g><g id="1rdrb3ns5p"><g transform="translate(1240.100000000001 779.95)"><path d="M 0.5,16.5 L 150,16.5 L 150,39.499572753906236 L 0.5,39.499572753906236 Z" fill="rgb(163, 119, 196)" stroke="rgb(163, 119, 196)" stroke-width="1" stroke-linecap="round" stroke-linejoin="round"/></g><g transform="translate(1240.100000000001, 779.95) rotate(0, 0, 0)" width="55" height="19"><text text-decoration="none" x="0" fill="#4b4b4b" font-size="8pt" font-family="Lato"  y="17">3&#160;</text><text text-decoration="none" x="9" fill="#4b4b4b" font-size="8pt" font-family="Lato"  y="17">Months&#160;</text><text text-decoration="none" x="52" fill="#4b4b4b" font-size="10pt" font-family="noto_regular"  y="17"></text></g><g transform="translate(1359.100000000001, 799.8995129394532) rotate(0, 0, 0)" width="39" height="19"><text text-decoration="none" x="0" fill="#f4f4f4" font-size="8pt" font-family="Lato"  y="17">100&#160;</text><text text-decoration="none" x="21" fill="#f4f4f4" font-size="8pt" font-family="Lato"  y="17">%&#160;</text><text text-decoration="none" x="33" fill="#4b4b4b" font-size="10pt" font-family="noto_regular"  y="17"></text></g></g></svg>